<?xml version="1.0" encoding="UTF-8" standalone="no"?>
<!-- Uploaded to: SVG Repo, www.svgrepo.com, Generator: SVG Repo Mixer Tools -->

<svg
   fill="#000000"
   width="800px"
   height="800px"
   viewBox="0 0 32 32"
   version="1.1"
   id="svg1"
   sodipodi:docname="twitter-ri.svg"
   inkscape:version="1.3.2 (091e20e, 2023-11-25, custom)"
   xmlns:inkscape="http://www.inkscape.org/namespaces/inkscape"
   xmlns:sodipodi="http://sodipodi.sourceforge.net/DTD/sodipodi-0.dtd"
   xmlns="http://www.w3.org/2000/svg"
   xmlns:svg="http://www.w3.org/2000/svg">
  <defs
     id="defs1" />
  <sodipodi:namedview
     id="namedview1"
     pagecolor="#ffffff"
     bordercolor="#666666"
     borderopacity="1.0"
     inkscape:showpageshadow="2"
     inkscape:pageopacity="0.0"
     inkscape:pagecheckerboard="0"
     inkscape:deskcolor="#d1d1d1"
     inkscape:zoom="0.99967221"
     inkscape:cx="204.56705"
     inkscape:cy="410.6346"
     inkscape:window-width="2560"
     inkscape:window-height="1369"
     inkscape:window-x="-8"
     inkscape:window-y="-8"
     inkscape:window-maximized="1"
     inkscape:current-layer="svg1" />
  <path
     d="M11.919 24.94c-2.548 0-4.921-.747-6.919-2.032a9.049 9.049 0 0 0 6.681-1.867 4.512 4.512 0 0 1-4.215-3.137c.276.054.559.082.848.082.412 0 .812-.056 1.193-.156a4.519 4.519 0 0 1-3.622-4.425v-.059a4.478 4.478 0 0 0 2.042.564 4.507 4.507 0 0 1-2.008-3.758c0-.824.225-1.602.612-2.268a12.811 12.811 0 0 0 9.303 4.715 4.517 4.517 0 0 1 7.692-4.115 9.107 9.107 0 0 0 2.866-1.094 4.542 4.542 0 0 1-1.983 2.498 9.08 9.08 0 0 0 2.592-.71 9.283 9.283 0 0 1-2.252 2.337c.008.193.014.388.014.583-.001 5.962-4.542 12.843-12.844 12.842"
     id="path1"
     style="fill:#6c9bff;fill-opacity:1" />
</svg>
